<?xml version="1.0" standalone="no"?>
<!DOCTYPE svg PUBLIC "-//W3C//DTD SVG 20010904//EN"
 "http://www.w3.org/TR/2001/REC-SVG-20010904/DTD/svg10.dtd">
<svg version="1.0" xmlns="http://www.w3.org/2000/svg"
 width="810.000000pt" height="1280.000000pt" viewBox="0 0 810.000000 1280.000000"
 preserveAspectRatio="xMidYMid meet">
<g transform="translate(0.000000,1280.000000) scale(0.100000,-0.100000)"
fill="#000000" stroke="none">
<path d="M3430 12394 c-536 -45 -951 -140 -1336 -304 -533 -228 -995 -598
-1279 -1025 -185 -279 -310 -638 -344 -989 -91 -932 337 -1619 1112 -1788 88
-19 133 -22 322 -23 195 0 232 3 325 23 273 62 478 178 669 378 202 213 304
444 333 752 21 225 -15 441 -107 631 -59 123 -115 199 -208 287 -97 93 -155
125 -502 280 -257 114 -295 135 -341 179 -63 60 -73 97 -50 178 61 210 435
453 816 531 378 77 821 27 1126 -127 431 -218 698 -663 788 -1312 111 -804
-53 -1735 -445 -2518 -259 -516 -708 -1110 -1584 -2092 -987 -1107 -1276
-1473 -1635 -2070 -122 -204 -327 -617 -403 -810 -203 -519 -322 -1086 -353
-1682 l-7 -131 26 -26 26 -26 3410 0 3410 0 6 33 c12 69 455 3276 455 3294 0
11 -10 29 -23 41 -23 22 -25 22 -408 20 l-384 -3 -3 -25 c-1 -14 -14 -88 -28
-165 -84 -475 -202 -727 -389 -830 -130 -72 -341 -118 -622 -135 -212 -12
-3682 -14 -3702 -1 -17 11 -7 41 67 206 332 746 1077 1507 2124 2171 123 78
345 217 493 309 859 534 1411 949 1831 1376 256 262 429 501 582 808 168 336
265 661 317 1062 23 172 31 562 16 741 -69 815 -411 1462 -1044 1976 -459 373
-1059 630 -1730 742 -328 54 -438 62 -877 65 -223 1 -425 1 -450 -1z"/>
</g>
</svg>
